<svg xmlns="http://www.w3.org/2000/svg" viewBox="0 0 512 512" width="128" height="128">
  <g clip-path="url(#clip0)">
    <mask id="mask0" style="mask-type:luminance" maskUnits="userSpaceOnUse" x="0" y="0" width="512" height="512">
      <path d="M512 0H0V512H512V0Z" fill="white"/>
    </mask>
    <g mask="url(#mask0)">
      <!-- Ear nubs -->
      <path d="M394.857 272.562L370.857 272.562C365.334 272.562 360.857 268.085 360.856 262.562L360.856 222.562C360.856 217.039 365.333 212.562 370.856 212.562L394.856 212.562C400.379 212.562 404.856 217.039 404.856 222.562L404.856 262.562C404.857 268.085 400.38 272.562 394.857 272.562Z" fill="#E0E0E0" stroke="#262626" stroke-width="10" stroke-miterlimit="10"/>
      <path d="M140.857 272.564L116.857 272.564C111.334 272.564 106.857 268.087 106.856 262.564L106.856 222.564C106.856 217.041 111.333 212.564 116.856 212.564L140.856 212.564C146.379 212.564 150.856 217.041 150.856 222.564L150.856 262.564C150.857 268.087 146.38 272.564 140.857 272.564Z" fill="#E0E0E0" stroke="#262626" stroke-width="10" stroke-miterlimit="10"/>
      <!-- Face background -->
      <path d="M333.991 320.39L178.009 320.392C151.494 320.392 130 298.898 130 272.383L129.999 212.401C129.999 185.886 151.493 164.392 178.008 164.392L333.99 164.39C360.505 164.39 381.999 185.884 381.999 212.399L382 272.381C382 298.896 360.506 320.39 333.991 320.39Z" fill="#E0E0E0" stroke="#262626" stroke-width="10" stroke-miterlimit="10"/>
      <!-- Face inner -->
      <path d="M321.512 320.39L190.488 320.392C168.215 320.392 150.16 298.898 150.16 272.383L150.159 212.401C150.159 185.886 168.214 164.392 190.486 164.392L321.511 164.39C343.784 164.39 361.839 185.884 361.839 212.399L361.84 272.381C361.84 298.896 343.785 320.39 321.512 320.39Z" fill="#F4F4F4"/>
      <!-- Smile -->
      <path d="M226.336 284.391C238.294 289.054 247.274 291.347 256.43 291.269C265.284 291.193 274.302 288.9 286.336 284.391C286.336 284.391 272.54 291.374 256.57 291.228C240.6 291.082 226.336 284.391 226.336 284.391Z" stroke="#262626" stroke-width="10" stroke-linecap="round" stroke-linejoin="round" fill="#262626"/>
      <!-- Right eye -->
      <path d="M284.106 240.563C284.106 225.237 296.082 212.813 310.856 212.812C325.63 212.812 337.606 225.236 337.606 240.562C337.606 255.888 325.631 268.312 310.857 268.312C296.083 268.313 284.106 255.889 284.106 240.563Z" fill="#262626"/>
      <path d="M309.856 236.562C309.856 232.699 312.993 229.562 316.856 229.562C320.719 229.562 323.856 232.699 323.856 236.562C323.856 240.426 320.72 243.562 316.856 243.562C312.993 243.562 309.856 240.426 309.856 236.562Z" fill="white"/>
      <!-- Left eye -->
      <path d="M172.106 240.564C172.106 225.238 184.082 212.814 198.856 212.814C213.63 212.813 225.606 225.237 225.606 240.563C225.606 255.889 213.631 268.313 198.857 268.314C184.083 268.314 172.106 255.89 172.106 240.564Z" fill="#262626"/>
      <path d="M197.856 236.564C197.856 232.7 200.993 229.563 204.856 229.563C208.719 229.563 211.856 232.7 211.856 236.563C211.856 240.427 208.72 243.563 204.856 243.563C200.993 243.563 197.856 240.427 197.856 236.564Z" fill="white"/>
      <!-- Blue gradient helmet top -->
      <path d="M394.578 194.391C399.406 194.391 403.801 191.611 405.871 187.249C409.277 180.071 405.211 171.578 397.483 169.732L384.999 165.316C384.998 97.7118 327.243 42.9073 255.997 42.908C184.752 42.9086 126.998 97.7142 126.999 165.318L114.515 169.734C106.787 171.58 102.721 180.073 106.127 187.251C108.197 191.613 112.592 194.393 117.42 194.393C117.42 194.393 164.307 194.393 256.403 194.392C348.499 194.391 394.578 194.391 394.578 194.391Z" fill="url(#paint0_linear)" stroke="#262626" stroke-width="8.976" stroke-linejoin="round"/>
      <!-- Antenna line -->
      <path d="M157.999 159.438C235.008 149.688 277.942 149.244 353.999 159.436" stroke="#262626" stroke-width="10" stroke-linecap="round"/>
      <!-- Antenna post -->
      <path d="M219.998 121.437L219.998 45.4373C219.997 39.9143 224.474 35.4373 229.997 35.4372L281.997 35.4368C287.52 35.4367 291.997 39.9137 291.998 45.4367L291.998 121.437" fill="url(#paint1_linear)" stroke="#262626" stroke-width="10" stroke-miterlimit="10" stroke-linecap="round"/>
      <!-- Neck -->
      <path d="M246 426.141C218.386 426.141 196 403.755 196 376.141L196 336.391C196 336.391 198.5 336.391 257.5 336.391C316.5 336.391 316 336.391 316 336.391L316 376.141C316 403.755 293.614 426.141 266 426.141L246 426.141Z" fill="#E0E0E0" stroke="#262626" stroke-width="10" stroke-miterlimit="10"/>
    </g>
  </g>
  <defs>
    <linearGradient id="paint0_linear" x1="176.998" y1="98.0017" x2="348.807" y2="217.518" gradientUnits="userSpaceOnUse">
      <stop stop-color="#0F62FE"/>
      <stop offset="0.5" stop-color="#5A68FE"/>
      <stop offset="1" stop-color="#A56EFF"/>
    </linearGradient>
    <linearGradient id="paint1_linear" x1="258.034" y1="58.266" x2="257.302" y2="75.733" gradientUnits="userSpaceOnUse">
      <stop stop-color="#0F62FE"/>
      <stop offset="0.41" stop-color="#0F62FE" stop-opacity="0.5"/>
      <stop offset="1" stop-color="#0F62FE" stop-opacity="0"/>
    </linearGradient>
    <clipPath id="clip0">
      <rect width="512" height="512" fill="white"/>
    </clipPath>
  </defs>
</svg>
